<svg id="weather-icon-chancerain" xmlns="http://www.w3.org/2000/svg" viewBox="0 0 52.8 47.7"><defs><style>.cls-1{fill:#fff;}.cls-2{fill:#2885c7;}</style></defs><g id="chancerain"><path class="cls-1" d="M44.1,42.9h5.7a9.56,9.56,0,0,0,9.5-9.5,9.74,9.74,0,0,0-8.4-9.3,19.42,19.42,0,0,0,.2-2.4A13.4,13.4,0,0,0,37.7,8.3a13.58,13.58,0,0,0-11.2,6,9.46,9.46,0,0,0-3.7-.8,9.28,9.28,0,0,0-9.3,9.3v.3A10.21,10.21,0,0,0,16.7,43l27.4-.1" transform="translate(-6.5 -8.3)"/><path class="cls-1" d="M49.5,26.6" transform="translate(-6.5 -8.3)"/><path class="cls-2" d="M24.9,46.5a2.35,2.35,0,0,1-.8-.2,1.29,1.29,0,0,1-.3-1.8L26.2,41a1.29,1.29,0,0,1,2.1,1.5L25.9,46A1.23,1.23,0,0,1,24.9,46.5Zm5.8,0a2.35,2.35,0,0,1-.8-.2,1.29,1.29,0,0,1-.3-1.8L32,41a1.29,1.29,0,0,1,1.8-.3,1.28,1.28,0,0,1,.3,1.8L31.7,46A1.23,1.23,0,0,1,30.7,46.5Zm5.8,0a2.35,2.35,0,0,1-.8-.2,1.29,1.29,0,0,1-.3-1.8L37.8,41a1.29,1.29,0,0,1,1.8-.3,1.28,1.28,0,0,1,.3,1.8L37.5,46A1,1,0,0,1,36.5,46.5ZM18.6,56a2.35,2.35,0,0,1-.8-.2,1.28,1.28,0,0,1-.3-1.8l2.4-3.5a1.4,1.4,0,0,1,1.9-.3,1.28,1.28,0,0,1,.3,1.8l-2.4,3.5A1.61,1.61,0,0,1,18.6,56Zm5.9,0a2.35,2.35,0,0,1-.8-.2,1.28,1.28,0,0,1-.3-1.8l2.4-3.5A1.29,1.29,0,0,1,27.9,52l-2.4,3.5A1.23,1.23,0,0,1,24.5,56Zm5.8,0a2.35,2.35,0,0,1-.8-.2,1.28,1.28,0,0,1-.3-1.8l2.4-3.5A1.29,1.29,0,1,1,33.7,52l-2.4,3.5A1.23,1.23,0,0,1,30.3,56Z" transform="translate(-6.5 -8.3)"/></g></svg>
